<mxfile host="app.diagrams.net" agent="Mozilla/5.0 (Windows NT 10.0; Win64; x64) AppleWebKit/537.36 (KHTML, like Gecko) Chrome/138.0.0.0 Safari/537.36" version="28.1.0">
  <diagram name="Page-1" id="yUSdLccuCAbWqYYFxyqy">
    <mxGraphModel dx="1097" dy="716" grid="1" gridSize="10" guides="1" tooltips="1" connect="1" arrows="1" fold="1" page="1" pageScale="1" pageWidth="850" pageHeight="1100" math="0" shadow="0">
      <root>
        <mxCell id="0" />
        <mxCell id="1" parent="0" />
        <mxCell id="Ejb5CwkSfBeZVg3py8xU-47" style="edgeStyle=orthogonalEdgeStyle;rounded=0;orthogonalLoop=1;jettySize=auto;html=1;exitX=1;exitY=0.5;exitDx=0;exitDy=0;entryX=0;entryY=0.5;entryDx=0;entryDy=0;exitPerimeter=0;entryPerimeter=0;" parent="1" source="Ejb5CwkSfBeZVg3py8xU-74" target="Ejb5CwkSfBeZVg3py8xU-76" edge="1">
          <mxGeometry relative="1" as="geometry">
            <mxPoint x="365" y="295" as="sourcePoint" />
            <mxPoint x="485" y="295" as="targetPoint" />
          </mxGeometry>
        </mxCell>
        <mxCell id="Ejb5CwkSfBeZVg3py8xU-84" value="No" style="edgeLabel;html=1;align=center;verticalAlign=middle;resizable=0;points=[];" parent="Ejb5CwkSfBeZVg3py8xU-47" vertex="1" connectable="0">
          <mxGeometry x="0.0099" relative="1" as="geometry">
            <mxPoint as="offset" />
          </mxGeometry>
        </mxCell>
        <mxCell id="Ejb5CwkSfBeZVg3py8xU-36" style="edgeStyle=orthogonalEdgeStyle;rounded=0;orthogonalLoop=1;jettySize=auto;html=1;exitX=0.5;exitY=1;exitDx=0;exitDy=0;entryX=0.5;entryY=0;entryDx=0;entryDy=0;" parent="1" source="Ejb5CwkSfBeZVg3py8xU-33" target="Ejb5CwkSfBeZVg3py8xU-35" edge="1">
          <mxGeometry relative="1" as="geometry" />
        </mxCell>
        <mxCell id="Ejb5CwkSfBeZVg3py8xU-33" value="Dashboard Admin" style="rounded=0;whiteSpace=wrap;html=1;" parent="1" vertex="1">
          <mxGeometry x="35" y="275" width="120" height="60" as="geometry" />
        </mxCell>
        <mxCell id="Ejb5CwkSfBeZVg3py8xU-56" style="edgeStyle=orthogonalEdgeStyle;rounded=0;orthogonalLoop=1;jettySize=auto;html=1;exitX=0.5;exitY=1;exitDx=0;exitDy=0;entryX=0.5;entryY=0;entryDx=0;entryDy=0;" parent="1" source="Ejb5CwkSfBeZVg3py8xU-35" edge="1">
          <mxGeometry relative="1" as="geometry">
            <mxPoint x="95" y="555" as="targetPoint" />
          </mxGeometry>
        </mxCell>
        <mxCell id="Ejb5CwkSfBeZVg3py8xU-35" value="Kelola Data (Layanan/User/Kasir/laporan)" style="rounded=0;whiteSpace=wrap;html=1;" parent="1" vertex="1">
          <mxGeometry y="415" width="190" height="60" as="geometry" />
        </mxCell>
        <mxCell id="Ejb5CwkSfBeZVg3py8xU-50" style="edgeStyle=orthogonalEdgeStyle;rounded=0;orthogonalLoop=1;jettySize=auto;html=1;exitX=0.5;exitY=1;exitDx=0;exitDy=0;entryX=0.5;entryY=0;entryDx=0;entryDy=0;exitPerimeter=0;" parent="1" source="Ejb5CwkSfBeZVg3py8xU-76" target="Ejb5CwkSfBeZVg3py8xU-49" edge="1">
          <mxGeometry relative="1" as="geometry">
            <mxPoint x="525" y="335" as="sourcePoint" />
          </mxGeometry>
        </mxCell>
        <mxCell id="Ejb5CwkSfBeZVg3py8xU-51" value="Yes" style="edgeLabel;html=1;align=center;verticalAlign=middle;resizable=0;points=[];" parent="Ejb5CwkSfBeZVg3py8xU-50" vertex="1" connectable="0">
          <mxGeometry x="-0.1429" y="1" relative="1" as="geometry">
            <mxPoint as="offset" />
          </mxGeometry>
        </mxCell>
        <mxCell id="Ejb5CwkSfBeZVg3py8xU-63" style="edgeStyle=orthogonalEdgeStyle;rounded=0;orthogonalLoop=1;jettySize=auto;html=1;exitX=1;exitY=0.5;exitDx=0;exitDy=0;entryX=0;entryY=0.5;entryDx=0;entryDy=0;exitPerimeter=0;entryPerimeter=0;" parent="1" source="Ejb5CwkSfBeZVg3py8xU-76" target="Ejb5CwkSfBeZVg3py8xU-77" edge="1">
          <mxGeometry relative="1" as="geometry">
            <mxPoint x="565" y="295" as="sourcePoint" />
            <mxPoint x="730" y="295" as="targetPoint" />
          </mxGeometry>
        </mxCell>
        <mxCell id="Ejb5CwkSfBeZVg3py8xU-85" value="No" style="edgeLabel;html=1;align=center;verticalAlign=middle;resizable=0;points=[];" parent="Ejb5CwkSfBeZVg3py8xU-63" vertex="1" connectable="0">
          <mxGeometry x="0.0044" y="1" relative="1" as="geometry">
            <mxPoint as="offset" />
          </mxGeometry>
        </mxCell>
        <mxCell id="Ejb5CwkSfBeZVg3py8xU-53" style="edgeStyle=orthogonalEdgeStyle;rounded=0;orthogonalLoop=1;jettySize=auto;html=1;exitX=0.5;exitY=1;exitDx=0;exitDy=0;entryX=0.5;entryY=0;entryDx=0;entryDy=0;" parent="1" source="Ejb5CwkSfBeZVg3py8xU-49" target="Ejb5CwkSfBeZVg3py8xU-52" edge="1">
          <mxGeometry relative="1" as="geometry" />
        </mxCell>
        <mxCell id="Ejb5CwkSfBeZVg3py8xU-49" value="Dashboard User" style="rounded=0;whiteSpace=wrap;html=1;" parent="1" vertex="1">
          <mxGeometry x="475" y="425" width="120" height="60" as="geometry" />
        </mxCell>
        <mxCell id="Ejb5CwkSfBeZVg3py8xU-55" style="edgeStyle=orthogonalEdgeStyle;rounded=0;orthogonalLoop=1;jettySize=auto;html=1;exitX=0.5;exitY=1;exitDx=0;exitDy=0;entryX=0.5;entryY=0;entryDx=0;entryDy=0;" parent="1" source="Ejb5CwkSfBeZVg3py8xU-52" target="Ejb5CwkSfBeZVg3py8xU-54" edge="1">
          <mxGeometry relative="1" as="geometry" />
        </mxCell>
        <mxCell id="Ejb5CwkSfBeZVg3py8xU-52" value="Pilih Layanan &amp;amp; Buat Pesanan" style="rounded=0;whiteSpace=wrap;html=1;" parent="1" vertex="1">
          <mxGeometry x="450" y="525" width="170" height="60" as="geometry" />
        </mxCell>
        <mxCell id="Ejb5CwkSfBeZVg3py8xU-59" style="edgeStyle=orthogonalEdgeStyle;rounded=0;orthogonalLoop=1;jettySize=auto;html=1;exitX=0.5;exitY=1;exitDx=0;exitDy=0;entryX=0.5;entryY=0;entryDx=0;entryDy=0;" parent="1" source="Ejb5CwkSfBeZVg3py8xU-54" edge="1">
          <mxGeometry relative="1" as="geometry">
            <mxPoint x="535" y="735" as="targetPoint" />
          </mxGeometry>
        </mxCell>
        <mxCell id="Ejb5CwkSfBeZVg3py8xU-54" value="Lihat Status Cucian" style="rounded=0;whiteSpace=wrap;html=1;" parent="1" vertex="1">
          <mxGeometry x="475" y="625" width="120" height="60" as="geometry" />
        </mxCell>
        <mxCell id="Ejb5CwkSfBeZVg3py8xU-61" style="edgeStyle=orthogonalEdgeStyle;rounded=0;orthogonalLoop=1;jettySize=auto;html=1;exitX=0.5;exitY=1;exitDx=0;exitDy=0;entryX=0.5;entryY=0;entryDx=0;entryDy=0;" parent="1" edge="1">
          <mxGeometry relative="1" as="geometry">
            <mxPoint x="535" y="795" as="sourcePoint" />
            <mxPoint x="535" y="845" as="targetPoint" />
          </mxGeometry>
        </mxCell>
        <mxCell id="Ejb5CwkSfBeZVg3py8xU-69" style="edgeStyle=orthogonalEdgeStyle;rounded=0;orthogonalLoop=1;jettySize=auto;html=1;exitX=0.5;exitY=1;exitDx=0;exitDy=0;entryX=0.5;entryY=0;entryDx=0;entryDy=0;exitPerimeter=0;" parent="1" source="Ejb5CwkSfBeZVg3py8xU-77" target="Ejb5CwkSfBeZVg3py8xU-68" edge="1">
          <mxGeometry relative="1" as="geometry">
            <mxPoint x="770" y="335" as="sourcePoint" />
          </mxGeometry>
        </mxCell>
        <mxCell id="Ejb5CwkSfBeZVg3py8xU-87" value="Yes" style="edgeLabel;html=1;align=center;verticalAlign=middle;resizable=0;points=[];" parent="Ejb5CwkSfBeZVg3py8xU-69" vertex="1" connectable="0">
          <mxGeometry x="-0.2112" relative="1" as="geometry">
            <mxPoint as="offset" />
          </mxGeometry>
        </mxCell>
        <mxCell id="Ejb5CwkSfBeZVg3py8xU-92" style="edgeStyle=orthogonalEdgeStyle;rounded=0;orthogonalLoop=1;jettySize=auto;html=1;exitX=0.5;exitY=1;exitDx=0;exitDy=0;entryX=0.5;entryY=0;entryDx=0;entryDy=0;" parent="1" source="Ejb5CwkSfBeZVg3py8xU-68" target="Ejb5CwkSfBeZVg3py8xU-90" edge="1">
          <mxGeometry relative="1" as="geometry" />
        </mxCell>
        <mxCell id="Ejb5CwkSfBeZVg3py8xU-68" value="Dashboard Kasir" style="rounded=0;whiteSpace=wrap;html=1;" parent="1" vertex="1">
          <mxGeometry x="710" y="485" width="120" height="60" as="geometry" />
        </mxCell>
        <mxCell id="Ejb5CwkSfBeZVg3py8xU-81" style="edgeStyle=orthogonalEdgeStyle;rounded=0;orthogonalLoop=1;jettySize=auto;html=1;exitX=0;exitY=0.5;exitDx=0;exitDy=0;exitPerimeter=0;entryX=1;entryY=0.5;entryDx=0;entryDy=0;" parent="1" source="Ejb5CwkSfBeZVg3py8xU-74" target="Ejb5CwkSfBeZVg3py8xU-33" edge="1">
          <mxGeometry relative="1" as="geometry" />
        </mxCell>
        <mxCell id="Ejb5CwkSfBeZVg3py8xU-83" value="Yes" style="edgeLabel;html=1;align=center;verticalAlign=middle;resizable=0;points=[];" parent="Ejb5CwkSfBeZVg3py8xU-81" vertex="1" connectable="0">
          <mxGeometry x="-0.0924" y="-1" relative="1" as="geometry">
            <mxPoint as="offset" />
          </mxGeometry>
        </mxCell>
        <mxCell id="Ejb5CwkSfBeZVg3py8xU-74" value="Admin ?" style="strokeWidth=2;html=1;shape=mxgraph.flowchart.decision;whiteSpace=wrap;" parent="1" vertex="1">
          <mxGeometry x="275" y="255" width="100" height="100" as="geometry" />
        </mxCell>
        <mxCell id="Ejb5CwkSfBeZVg3py8xU-101" style="edgeStyle=orthogonalEdgeStyle;rounded=0;orthogonalLoop=1;jettySize=auto;html=1;exitX=0.5;exitY=1;exitDx=0;exitDy=0;exitPerimeter=0;entryX=0.5;entryY=0;entryDx=0;entryDy=0;" parent="1" source="Ejb5CwkSfBeZVg3py8xU-75" target="Ejb5CwkSfBeZVg3py8xU-88" edge="1">
          <mxGeometry relative="1" as="geometry" />
        </mxCell>
        <mxCell id="Ejb5CwkSfBeZVg3py8xU-75" value="Start" style="strokeWidth=2;html=1;shape=mxgraph.flowchart.start_1;whiteSpace=wrap;" parent="1" vertex="1">
          <mxGeometry x="275" y="10" width="100" height="60" as="geometry" />
        </mxCell>
        <mxCell id="Ejb5CwkSfBeZVg3py8xU-76" value="User ?&lt;span style=&quot;color: rgba(0, 0, 0, 0); font-family: monospace; font-size: 0px; text-align: start; text-wrap-mode: nowrap;&quot;&gt;%3CmxGraphModel%3E%3Croot%3E%3CmxCell%20id%3D%220%22%2F%3E%3CmxCell%20id%3D%221%22%20parent%3D%220%22%2F%3E%3CmxCell%20id%3D%222%22%20value%3D%22Admin%20%3F%22%20style%3D%22strokeWidth%3D2%3Bhtml%3D1%3Bshape%3Dmxgraph.flowchart.decision%3BwhiteSpace%3Dwrap%3B%22%20vertex%3D%221%22%20parent%3D%221%22%3E%3CmxGeometry%20x%3D%22395%22%20y%3D%22340%22%20width%3D%22100%22%20height%3D%22100%22%20as%3D%22geometry%22%2F%3E%3C%2FmxCell%3E%3C%2Froot%3E%3C%2FmxGraphModel%3E&lt;/span&gt;" style="strokeWidth=2;html=1;shape=mxgraph.flowchart.decision;whiteSpace=wrap;" parent="1" vertex="1">
          <mxGeometry x="485" y="255" width="100" height="100" as="geometry" />
        </mxCell>
        <mxCell id="K6DQ3Io4F3SPrAN6tbgA-1" style="edgeStyle=orthogonalEdgeStyle;rounded=0;orthogonalLoop=1;jettySize=auto;html=1;exitX=0.5;exitY=0;exitDx=0;exitDy=0;exitPerimeter=0;entryX=1;entryY=0.5;entryDx=0;entryDy=0;" edge="1" parent="1" source="Ejb5CwkSfBeZVg3py8xU-77" target="Ejb5CwkSfBeZVg3py8xU-88">
          <mxGeometry relative="1" as="geometry">
            <Array as="points">
              <mxPoint x="770" y="160" />
            </Array>
          </mxGeometry>
        </mxCell>
        <mxCell id="K6DQ3Io4F3SPrAN6tbgA-2" value="No" style="edgeLabel;html=1;align=center;verticalAlign=middle;resizable=0;points=[];" vertex="1" connectable="0" parent="K6DQ3Io4F3SPrAN6tbgA-1">
          <mxGeometry x="-0.7868" y="1" relative="1" as="geometry">
            <mxPoint as="offset" />
          </mxGeometry>
        </mxCell>
        <mxCell id="Ejb5CwkSfBeZVg3py8xU-77" value="Kasir ?" style="strokeWidth=2;html=1;shape=mxgraph.flowchart.decision;whiteSpace=wrap;fillColor=none;" parent="1" vertex="1">
          <mxGeometry x="720" y="255" width="100" height="100" as="geometry" />
        </mxCell>
        <mxCell id="Ejb5CwkSfBeZVg3py8xU-78" value="Logout User" style="strokeWidth=2;html=1;shape=mxgraph.flowchart.start_1;whiteSpace=wrap;" parent="1" vertex="1">
          <mxGeometry x="485" y="845" width="100" height="60" as="geometry" />
        </mxCell>
        <mxCell id="Ejb5CwkSfBeZVg3py8xU-79" value="Logout Admin" style="strokeWidth=2;html=1;shape=mxgraph.flowchart.start_1;whiteSpace=wrap;" parent="1" vertex="1">
          <mxGeometry x="45" y="555" width="100" height="60" as="geometry" />
        </mxCell>
        <mxCell id="Ejb5CwkSfBeZVg3py8xU-80" value="Logout Kasir" style="strokeWidth=2;html=1;shape=mxgraph.flowchart.start_1;whiteSpace=wrap;" parent="1" vertex="1">
          <mxGeometry x="720" y="975" width="100" height="60" as="geometry" />
        </mxCell>
        <mxCell id="Ejb5CwkSfBeZVg3py8xU-95" style="edgeStyle=orthogonalEdgeStyle;rounded=0;orthogonalLoop=1;jettySize=auto;html=1;exitX=0.5;exitY=1;exitDx=0;exitDy=0;entryX=0.5;entryY=0;entryDx=0;entryDy=0;" parent="1" source="Ejb5CwkSfBeZVg3py8xU-90" target="Ejb5CwkSfBeZVg3py8xU-93" edge="1">
          <mxGeometry relative="1" as="geometry" />
        </mxCell>
        <mxCell id="Ejb5CwkSfBeZVg3py8xU-90" value="Konfirmasi&amp;nbsp;&lt;div&gt;Pesanan&lt;/div&gt;" style="verticalLabelPosition=middle;verticalAlign=middle;html=1;shape=trapezoid;perimeter=trapezoidPerimeter;whiteSpace=wrap;size=0.23;arcSize=10;flipV=1;labelPosition=center;align=center;" parent="1" vertex="1">
          <mxGeometry x="711.6700000000001" y="605" width="116.67" height="70" as="geometry" />
        </mxCell>
        <mxCell id="Ejb5CwkSfBeZVg3py8xU-91" value="Melakukan Pembayaran" style="shape=parallelogram;html=1;strokeWidth=2;perimeter=parallelogramPerimeter;whiteSpace=wrap;rounded=1;arcSize=12;size=0.23;" parent="1" vertex="1">
          <mxGeometry x="440" y="735" width="190" height="60" as="geometry" />
        </mxCell>
        <mxCell id="Ejb5CwkSfBeZVg3py8xU-97" style="edgeStyle=orthogonalEdgeStyle;rounded=0;orthogonalLoop=1;jettySize=auto;html=1;exitX=0.5;exitY=1;exitDx=0;exitDy=0;entryX=0.5;entryY=0;entryDx=0;entryDy=0;" parent="1" source="Ejb5CwkSfBeZVg3py8xU-93" target="Ejb5CwkSfBeZVg3py8xU-96" edge="1">
          <mxGeometry relative="1" as="geometry" />
        </mxCell>
        <mxCell id="Ejb5CwkSfBeZVg3py8xU-93" value="Proses &amp;amp; Update&amp;nbsp;&lt;div&gt;Status Pencucian&lt;/div&gt;" style="verticalLabelPosition=middle;verticalAlign=middle;html=1;shape=trapezoid;perimeter=trapezoidPerimeter;whiteSpace=wrap;size=0.23;arcSize=10;flipV=1;labelPosition=center;align=center;" parent="1" vertex="1">
          <mxGeometry x="703.3299999999999" y="735" width="133.34" height="90" as="geometry" />
        </mxCell>
        <mxCell id="Ejb5CwkSfBeZVg3py8xU-96" value="Input Pembayaran" style="shape=parallelogram;html=1;strokeWidth=2;perimeter=parallelogramPerimeter;whiteSpace=wrap;rounded=1;arcSize=12;size=0.23;" parent="1" vertex="1">
          <mxGeometry x="697.5" y="875" width="145" height="50" as="geometry" />
        </mxCell>
        <mxCell id="Ejb5CwkSfBeZVg3py8xU-98" style="edgeStyle=orthogonalEdgeStyle;rounded=0;orthogonalLoop=1;jettySize=auto;html=1;exitX=0.5;exitY=1;exitDx=0;exitDy=0;entryX=0.5;entryY=0;entryDx=0;entryDy=0;entryPerimeter=0;" parent="1" source="Ejb5CwkSfBeZVg3py8xU-96" target="Ejb5CwkSfBeZVg3py8xU-80" edge="1">
          <mxGeometry relative="1" as="geometry" />
        </mxCell>
        <mxCell id="Ejb5CwkSfBeZVg3py8xU-100" value="" style="edgeStyle=orthogonalEdgeStyle;rounded=0;orthogonalLoop=1;jettySize=auto;html=1;entryX=0.5;entryY=0;entryDx=0;entryDy=0;exitX=0.5;exitY=1;exitDx=0;exitDy=0;" parent="1" target="Ejb5CwkSfBeZVg3py8xU-88" edge="1">
          <mxGeometry relative="1" as="geometry">
            <mxPoint x="325" y="155" as="sourcePoint" />
            <mxPoint x="325" y="255" as="targetPoint" />
          </mxGeometry>
        </mxCell>
        <mxCell id="Ejb5CwkSfBeZVg3py8xU-88" value="Login (Pilih Role)" style="shape=parallelogram;html=1;strokeWidth=2;perimeter=parallelogramPerimeter;whiteSpace=wrap;rounded=1;arcSize=12;size=0.23;" parent="1" vertex="1">
          <mxGeometry x="245" y="130" width="160" height="60" as="geometry" />
        </mxCell>
        <mxCell id="Ejb5CwkSfBeZVg3py8xU-102" style="edgeStyle=orthogonalEdgeStyle;rounded=0;orthogonalLoop=1;jettySize=auto;html=1;exitX=0.5;exitY=1;exitDx=0;exitDy=0;entryX=0.5;entryY=0;entryDx=0;entryDy=0;entryPerimeter=0;" parent="1" source="Ejb5CwkSfBeZVg3py8xU-88" target="Ejb5CwkSfBeZVg3py8xU-74" edge="1">
          <mxGeometry relative="1" as="geometry" />
        </mxCell>
        <mxCell id="Ejb5CwkSfBeZVg3py8xU-103" value="End" style="strokeWidth=2;html=1;shape=mxgraph.flowchart.start_1;whiteSpace=wrap;" parent="1" vertex="1">
          <mxGeometry x="200" y="1010" width="100" height="60" as="geometry" />
        </mxCell>
        <mxCell id="Ejb5CwkSfBeZVg3py8xU-107" style="edgeStyle=orthogonalEdgeStyle;rounded=0;orthogonalLoop=1;jettySize=auto;html=1;exitX=0.5;exitY=1;exitDx=0;exitDy=0;exitPerimeter=0;entryX=0.5;entryY=1;entryDx=0;entryDy=0;entryPerimeter=0;" parent="1" source="Ejb5CwkSfBeZVg3py8xU-80" target="Ejb5CwkSfBeZVg3py8xU-103" edge="1">
          <mxGeometry relative="1" as="geometry" />
        </mxCell>
        <mxCell id="K6DQ3Io4F3SPrAN6tbgA-3" value="" style="strokeWidth=2;html=1;shape=mxgraph.flowchart.annotation_2;align=left;labelPosition=right;pointerEvents=1;rotation=-90;" vertex="1" parent="1">
          <mxGeometry x="225" y="935" width="50" height="100" as="geometry" />
        </mxCell>
        <mxCell id="K6DQ3Io4F3SPrAN6tbgA-5" style="edgeStyle=orthogonalEdgeStyle;rounded=0;orthogonalLoop=1;jettySize=auto;html=1;exitX=0.5;exitY=1;exitDx=0;exitDy=0;exitPerimeter=0;entryX=1;entryY=1;entryDx=0;entryDy=0;entryPerimeter=0;" edge="1" parent="1" source="Ejb5CwkSfBeZVg3py8xU-78" target="K6DQ3Io4F3SPrAN6tbgA-3">
          <mxGeometry relative="1" as="geometry" />
        </mxCell>
        <mxCell id="K6DQ3Io4F3SPrAN6tbgA-6" style="edgeStyle=orthogonalEdgeStyle;rounded=0;orthogonalLoop=1;jettySize=auto;html=1;exitX=0.5;exitY=1;exitDx=0;exitDy=0;exitPerimeter=0;entryX=1;entryY=0;entryDx=0;entryDy=0;entryPerimeter=0;" edge="1" parent="1" source="Ejb5CwkSfBeZVg3py8xU-79" target="K6DQ3Io4F3SPrAN6tbgA-3">
          <mxGeometry relative="1" as="geometry">
            <Array as="points">
              <mxPoint x="95" y="900" />
              <mxPoint x="200" y="900" />
            </Array>
          </mxGeometry>
        </mxCell>
      </root>
    </mxGraphModel>
  </diagram>
</mxfile>
